<svg width="38" height="30" viewBox="0 0 38 30" fill="none" xmlns="http://www.w3.org/2000/svg">
<path d="M25.802 24L19 19.6875L12.198 24L14.25 16.275L7.999 11.25L16.074 10.7625L19 3.375L21.926 10.7625L30.001 11.25L23.75 16.275M34.2 15C34.2 14.0054 34.6004 13.0516 35.313 12.3484C36.0256 11.6451 36.9922 11.25 38 11.25V3.75C38 2.75544 37.5996 1.80161 36.887 1.09835C36.1744 0.395088 35.2078 0 34.2 0H3.8C2.79218 0 1.82563 0.395088 1.11299 1.09835C0.400356 1.80161 0 2.75544 0 3.75V11.25C1.00782 11.25 1.97437 11.6451 2.68701 12.3484C3.39964 13.0516 3.8 14.0054 3.8 15C3.8 15.9946 3.39964 16.9484 2.68701 17.6516C1.97437 18.3549 1.00782 18.75 0 18.75V26.25C0 27.2446 0.400356 28.1984 1.11299 28.9016C1.82563 29.6049 2.79218 30 3.8 30H34.2C35.2078 30 36.1744 29.6049 36.887 28.9016C37.5996 28.1984 38 27.2446 38 26.25V18.75C36.9922 18.75 36.0256 18.3549 35.313 17.6516C34.6004 16.9484 34.2 15.9946 34.2 15Z" fill="#F9FAFA"/>
<path d="M25.802 24L19 19.6875L12.198 24L14.25 16.275L7.999 11.25L16.074 10.7625L19 3.375L21.926 10.7625L30.001 11.25L23.75 16.275L25.802 24Z" fill="#00C8FF"/>
</svg>
